<svg width="26" height="26" viewBox="0 0 26 26" fill="none" xmlns="http://www.w3.org/2000/svg">
<path d="M11.5 1.5H9.25C8.65326 1.5 8.08097 1.73705 7.65901 2.15901C7.23705 2.58097 7 3.15326 7 3.75V20.25C7 20.8467 7.23705 21.419 7.65901 21.841C8.08097 22.2629 8.65326 22.5 9.25 22.5H16.75C17.3467 22.5 17.919 22.2629 18.341 21.841C18.7629 21.419 19 20.8467 19 20.25V3.75C19 3.15326 18.7629 2.58097 18.341 2.15901C17.919 1.73705 17.3467 1.5 16.75 1.5H14.5M11.5 1.5V3H14.5V1.5M11.5 1.5H14.5M11.5 20.25H14.5" stroke="black" stroke-width="1.5" stroke-linecap="round" stroke-linejoin="round"/>
</svg>
